<svg id="Layer_1" data-name="Layer 1" xmlns="http://www.w3.org/2000/svg" viewBox="0 0 65 76"><defs><style>.cls-1{fill:#532683;}</style></defs><path class="cls-1" d="M64.64,3.18V56.75a2.68,2.68,0,1,1-5.35,0V11.21H13.75a2.67,2.67,0,0,1-2.68-2.67V3.18A2.68,2.68,0,0,1,13.75.5H62A2.68,2.68,0,0,1,64.64,3.18ZM53.93,19.25V72.82a2.68,2.68,0,0,1-2.68,2.68H3A2.68,2.68,0,0,1,.36,72.82V19.25A2.68,2.68,0,0,1,3,16.57H51.25A2.68,2.68,0,0,1,53.93,19.25ZM42.75,59.17a2.12,2.12,0,0,0-2.12-2.12h-27a2.12,2.12,0,0,0,0,4.24h27A2.12,2.12,0,0,0,42.75,59.17Zm0-13.09A2.12,2.12,0,0,0,40.63,44h-27a2.12,2.12,0,0,0,0,4.23h27A2.11,2.11,0,0,0,42.75,46.08Zm0-13.1a2.11,2.11,0,0,0-2.12-2.11h-27a2.12,2.12,0,0,0,0,4.23h27A2.12,2.12,0,0,0,42.75,33Z"/></svg>
