<svg id="Layer_1" data-name="Layer 1" xmlns="http://www.w3.org/2000/svg" viewBox="0 0 41 46"><defs><style>.cls-1{fill:#fff;}.cls-2{fill:#50ac48;}</style></defs><path class="cls-1" d="M8.72,4.38V41.57s.28,1.55,1.34,1.74,26.3,0,26.3,0,1.51-.34,1.51-1.51V12.89H28.42l-2.58-10H8.53Z"/><path class="cls-2" d="M33.36,21.57H1.93A1.43,1.43,0,0,0,.5,23V37.29a1.43,1.43,0,0,0,1.43,1.42H33.36a1.43,1.43,0,0,0,1.43-1.42V23A1.44,1.44,0,0,0,33.36,21.57Z"/><path class="cls-2" d="M39.07,11,29.66,1.57A5.31,5.31,0,0,0,26.21.14H10.5A4.3,4.3,0,0,0,6.21,4.43V41.16c0,.07,0,.14,0,.21s0,.13,0,.2a4.3,4.3,0,0,0,4.29,4.29H36.21a4.3,4.3,0,0,0,4.29-4.29V14.43A5.35,5.35,0,0,0,39.07,11ZM37.64,41.57A1.43,1.43,0,0,1,36.21,43H10.5a1.43,1.43,0,0,1-1.43-1.43,1.23,1.23,0,0,0,0-.2,1.49,1.49,0,0,0,0-.21V4.43A1.43,1.43,0,0,1,10.5,3H23.36a2.85,2.85,0,0,1,2.85,2.86v5.35a3.23,3.23,0,0,0,3.22,3.22h5.36a2.86,2.86,0,0,1,2.85,2.86Z"/><path class="cls-1" d="M10.14,26.42H7.5a.79.79,0,0,0-.77.79v6.43a.77.77,0,0,0,.77.79.72.72,0,0,0,.74-.79V32.13h1.9a2.86,2.86,0,0,0,0-5.71Zm0,4.28H8.24V27.86h1.9a1.42,1.42,0,0,1,0,2.84ZM24.77,28v1.81h2.92a.89.89,0,0,1,.82.82.79.79,0,0,1-.82.68H24.77v2.4a.68.68,0,0,1-.68.71.73.73,0,0,1-.81-.71V27.23a.72.72,0,0,1,.81-.71h4a.71.71,0,0,1,.8.71.79.79,0,0,1-.8.78Zm-6.95-1.49H15.2a.78.78,0,0,0-.79.71v6.49a.72.72,0,0,0,.79.71h2.72C22.92,34.43,23,26.52,17.82,26.52Zm0,6.51h-1.9V27.92h1.9C21,27.92,20.9,33,17.82,33Z"/></svg>
